<svg id="logosandtypes_com" xmlns="http://www.w3.org/2000/svg" viewBox="0 0 150 150"><path d="M0 0h150v150H0V0z" fill="none"/><linearGradient id="a" gradientUnits="userSpaceOnUse" x1="-4.0596" y1="139.5481" x2="-4.0596" y2="11.2096" gradientTransform="translate(79 -1.5)"><stop offset="0" stop-color="#ee9037"/><stop offset=".0996" stop-color="#ee8e3e"/><stop offset=".259" stop-color="#ee884f"/><stop offset=".4583" stop-color="#ec7d63"/><stop offset=".6897" stop-color="#ea6c76"/><stop offset=".9452" stop-color="#e6558a"/><stop offset="1" stop-color="#e64e8d"/></linearGradient><path d="M129 47.9c1.6-2.9 3.1-6.3-2-9.3-5.2-3-41.1-24.1-46.1-27.1l-.2.1c-2.3-1.1-7-3.3-11.4-.5-4.4 2.9-37.9 22.5-43.9 26.1-6 3.5-4.2 8.2-1.1 10 3.1 1.8 11.5 7 14.2 8.8 2.7 1.8 5.1 4 2.8 7.9C39 67.8 24.1 93.8 21 98.7c-3.1 5-1.5 9 2.2 11.3 3.7 2.3 39.8 23.1 44.1 25.6 4.3 2.5 8.5 3.4 12.6 1.2s40.9-24 45.5-26.7c4.6-2.8 2.4-7.3.4-8.6-2-1.2-12.2-7.9-16.1-10.4-3.9-2.5-3.5-4.1-1.4-7.8 2-3.6 19-32.6 20.7-35.4zm-87 4c-1.9-1-8.9-5.1-10.7-6.2-3.3-2.1-2.3-5.3 0-6.5 2.3-1.2 25.8-14.6 28.6-15.9 2.3-1.1 4.6.8 3 3.8-.9 2-11.4 19.7-13.3 22.9-1.9 3.3-4.5 3.6-7.6 1.9zM32.6 90c1-1.9 11.2-19.7 13.1-23 1.9-3.3 4.4-3.6 7.5-2 1.9 1 8.9 5 10.7 6.1 3.4 2 2.3 5.3.1 6.5-2.3 1.2-25.7 14.9-28.4 16.3-2.3 1-4.6-.9-3-3.9zM72 126c-.2 3.4-2.9 5-7.9 2.1-4.9-3-29.7-17-32.8-18.7-3.1-1.7-4.7-4.5-.5-6.9 4.2-2.4 31-17.8 34.9-20.2 3.8-2.3 6.6-1.2 6.5 3.6-.1 6.3 0 36.7-.2 40.1zm.1-62.8c.1 2.6-2.2 5.1-5.6 3.2-1.8-1-8.8-5.1-10.6-6.3-3-1.9-3.9-4.3-2-7.5s12.3-21 13.4-22.8c1.8-2.9 4.6-1.8 4.8.8.2 2.9-.1 30.1 0 32.6zm5.4-40.5c-.1-4.5 2.3-6.3 6.4-3.8 5.4 3.2 31.7 18.5 34.5 20.4 2.9 1.9 2.9 5.1-2.2 7.8-5.1 2.8-29.7 17.1-32.7 18.9-3.1 1.8-6.3 1.8-6.2-3.1.1-4.8.3-35.7.2-40.2zm0 95c-.2-3 .1-30.2 0-32.7-.1-2.6 2.2-5.1 5.6-3.2 1.8 1 8.8 5.1 10.6 6.3 3 1.9 3.9 4.3 2 7.5s-12.3 21-13.5 22.8c-1.7 3-4.5 1.9-4.7-.7zm30.1-21.4c1.9 1 8.9 5.1 10.6 6.2 3.3 2.1 2.3 5.3 0 6.5-2.3 1.2-25.9 14.6-28.6 15.9-2.3 1.1-4.6-.8-3-3.8 1-1.9 11.5-19.6 13.4-22.8 2-3.3 4.5-3.6 7.6-2zm-3.7-15c-1.9 3.3-4.4 3.6-7.5 2-1.9-1-8.9-5-10.7-6.1-3.4-2-2.3-5.3-.1-6.5 2.3-1.2 25.7-14.9 28.4-16.2 2.3-1.1 4.6.8 3 3.8-.9 1.9-11.2 19.7-13.1 23z" fill="url(#a)"/></svg>